<svg xmlns="http://www.w3.org/2000/svg" width="18.5" height="18.5" viewBox="0 0 18.5 18.5">
  <path id="icon_pinterest" d="M9.246,0A9.249,9.249,0,0,0,5.875,17.861a8.9,8.9,0,0,1,.03-2.656c.167-.723,1.081-4.6,1.081-4.6a3.368,3.368,0,0,1-.274-1.37c0-1.286.746-2.245,1.674-2.245a1.162,1.162,0,0,1,1.172,1.3,18.282,18.282,0,0,1-.769,3.082,1.345,1.345,0,0,0,1.37,1.674c1.644,0,2.907-1.735,2.907-4.231A3.649,3.649,0,0,0,9.2,5.061a4,4,0,0,0-4.178,4.01,3.609,3.609,0,0,0,.685,2.108.275.275,0,0,1,.061.266c-.068.289-.228.921-.259,1.05-.038.167-.137.205-.312.122A4.192,4.192,0,0,1,3.341,9.026c0-2.915,2.116-5.593,6.111-5.593a5.427,5.427,0,0,1,5.7,5.342c0,3.189-2.009,5.753-4.794,5.753a2.457,2.457,0,0,1-2.116-1.065l-.578,2.2a10.074,10.074,0,0,1-1.149,2.428A9.251,9.251,0,1,0,9.246,0Z"/>
</svg>
