<svg id="icon_instagram-pc" xmlns="http://www.w3.org/2000/svg" width="19" height="19" viewBox="0 0 19 19">
  <path id="パス_126504" data-name="パス 126504" d="M9.5,1.712c2.537,0,2.837.01,3.839.055a5.256,5.256,0,0,1,1.764.327A2.943,2.943,0,0,1,16.2,2.8,2.943,2.943,0,0,1,16.906,3.9a5.256,5.256,0,0,1,.327,1.764c.046,1,.055,1.3.055,3.839s-.01,2.837-.055,3.839a5.256,5.256,0,0,1-.327,1.764,3.146,3.146,0,0,1-1.8,1.8,5.256,5.256,0,0,1-1.764.327c-1,.046-1.3.055-3.839.055s-2.837-.01-3.839-.055A5.256,5.256,0,0,1,3.9,16.906,2.943,2.943,0,0,1,2.8,16.2,2.943,2.943,0,0,1,2.094,15.1a5.256,5.256,0,0,1-.327-1.764c-.046-1-.055-1.3-.055-3.839s.01-2.837.055-3.839A5.256,5.256,0,0,1,2.094,3.9,2.943,2.943,0,0,1,2.8,2.8,2.943,2.943,0,0,1,3.9,2.094a5.256,5.256,0,0,1,1.764-.327c1-.046,1.3-.055,3.839-.055M9.5,0C6.92,0,6.6.011,5.583.057A6.972,6.972,0,0,0,3.277.5a4.656,4.656,0,0,0-1.683,1.1A4.656,4.656,0,0,0,.5,3.277,6.972,6.972,0,0,0,.057,5.583C.011,6.6,0,6.92,0,9.5s.011,2.9.057,3.917A6.972,6.972,0,0,0,.5,15.723a4.656,4.656,0,0,0,1.1,1.683,4.657,4.657,0,0,0,1.683,1.1,6.973,6.973,0,0,0,2.306.442C6.6,18.989,6.92,19,9.5,19s2.9-.011,3.917-.057a6.973,6.973,0,0,0,2.306-.442A4.858,4.858,0,0,0,18.5,15.723a6.973,6.973,0,0,0,.442-2.306C18.989,12.4,19,12.08,19,9.5s-.011-2.9-.057-3.917A6.973,6.973,0,0,0,18.5,3.277a4.657,4.657,0,0,0-1.1-1.683A4.656,4.656,0,0,0,15.723.5,6.972,6.972,0,0,0,13.417.057C12.4.011,12.08,0,9.5,0Z" transform="translate(0 0)" fill="#111"/>
  <path id="パス_126505" data-name="パス 126505" d="M127.434,122.556a4.878,4.878,0,1,0,4.878,4.878A4.878,4.878,0,0,0,127.434,122.556Zm0,8.045a3.167,3.167,0,1,1,3.167-3.167A3.167,3.167,0,0,1,127.434,130.6Z" transform="translate(-117.934 -117.934)" fill="#111"/>
  <circle id="楕円形_94" data-name="楕円形 94" cx="1.14" cy="1.14" r="1.14" transform="translate(13.431 3.289)" fill="#111"/>
</svg>
