<svg xmlns="http://www.w3.org/2000/svg" width="267.128" height="21.669" viewBox="0 0 267.128 21.669">
  <path id="message_lead" d="M-129.645-8.861q0-1.089.168-2.931l-1.348.034a19.421,19.421,0,0,1-2.325-.157,3.312,3.312,0,0,0-.393-1.527,16.208,16.208,0,0,0,2.819.326q.427,0,1.4-.09.18-1.92.573-4.268a10.234,10.234,0,0,0,1.752.685,18.743,18.743,0,0,0-.685,3.425,42.47,42.47,0,0,0,6.559-1.595,2.912,2.912,0,0,0-.292,1.078q0,.225.011.483a38.3,38.3,0,0,1-6.48,1.471A24.879,24.879,0,0,0-128.05-9.4a16.411,16.411,0,0,1,2.572-.281q.4,0,1.123.034.281-1.056.416-1.763a14.462,14.462,0,0,0,1.685.685q-.18.674-.438,1.359,4.357,1.482,4.357,5.054,0,4.313-6.368,6.368A3.287,3.287,0,0,0-126.2.573,12.07,12.07,0,0,0-121.536-1.1a4.182,4.182,0,0,0,1.561-3.347q0-2.482-3.122-3.583A21.3,21.3,0,0,1-124.8-4.24a12.965,12.965,0,0,1-2.426,2.589l.438,1.033A3.769,3.769,0,0,0-128.185.528l-.528-.82a6.134,6.134,0,0,1-3.324,1.359,2.847,2.847,0,0,1-2.252-.983,3.791,3.791,0,0,1-.859-2.589,5.268,5.268,0,0,1,1.263-3.571A12.135,12.135,0,0,1-129.645-8.861Zm-.067,1.651q-3.841,1.819-3.841,4.593,0,2.044,1.763,2.044a4,4,0,0,0,2.684-1.359A24.522,24.522,0,0,1-129.712-7.21Zm1.965,4.077q1.864-1.325,3.111-5.155-.663-.034-1-.034a8.8,8.8,0,0,0-2.516.438l.045,1.393A18.3,18.3,0,0,0-127.747-3.133ZM-110.3.348a17,17,0,0,0,3.285-4.7A27.1,27.1,0,0,0-104.85-10.7q-1.089.079-1.752.079-.809,0-2.224-.09a2.473,2.473,0,0,0,.124-.685,3.16,3.16,0,0,0-.382-1.134,16.129,16.129,0,0,0,3.032.3l1.595-.045a17.688,17.688,0,0,0,.831-5.222,5.615,5.615,0,0,0,2.055,1.179,10.809,10.809,0,0,0-.775,2.572q-.079.416-.258,1.213a16.991,16.991,0,0,0,4.009-.977,14.037,14.037,0,0,0-.112,1.741q-.775.168-1.168.258a20.12,20.12,0,0,1-3.032.494,66.147,66.147,0,0,1-2.257,6.632,48.973,48.973,0,0,1-2.976,5.5A5.888,5.888,0,0,0-110.3.348Zm8.49-4.088a2.923,2.923,0,0,0,1.628.865,2.808,2.808,0,0,0-.651,1.4q0,1.46,3.246,1.46a10.554,10.554,0,0,0,5.323-1.157,7.24,7.24,0,0,0-.64,2.313,25.867,25.867,0,0,1-3.942.371q-5.5,0-5.5-2.774A10.085,10.085,0,0,1-101.806-3.74Zm2.044-4.133a4.393,4.393,0,0,0,.079-.719,3.589,3.589,0,0,0-.157-.831q1.864-.146,3.111-.146a19.86,19.86,0,0,1,3.942.371,5.008,5.008,0,0,0-.079.752,4.9,4.9,0,0,0,.112.831,19.136,19.136,0,0,0-4.5-.483A18.68,18.68,0,0,0-99.762-7.873ZM-85,.348a17,17,0,0,0,3.285-4.7A27.1,27.1,0,0,0-79.55-10.7q-1.089.079-1.752.079-.809,0-2.224-.09A2.473,2.473,0,0,0-83.4-11.4a3.16,3.16,0,0,0-.382-1.134,16.129,16.129,0,0,0,3.032.3l1.595-.045a17.688,17.688,0,0,0,.831-5.222,5.615,5.615,0,0,0,2.055,1.179,10.809,10.809,0,0,0-.775,2.572q-.079.416-.258,1.213a16.991,16.991,0,0,0,4.009-.977,14.037,14.037,0,0,0-.112,1.741q-.775.168-1.168.258a20.12,20.12,0,0,1-3.032.494,66.147,66.147,0,0,1-2.257,6.632,48.973,48.973,0,0,1-2.976,5.5A5.888,5.888,0,0,0-85,.348Zm8.49-4.088a2.923,2.923,0,0,0,1.628.865,2.808,2.808,0,0,0-.651,1.4q0,1.46,3.246,1.46a10.554,10.554,0,0,0,5.323-1.157,7.24,7.24,0,0,0-.64,2.313,25.867,25.867,0,0,1-3.942.371q-5.5,0-5.5-2.774A10.085,10.085,0,0,1-76.506-3.74Zm2.044-4.133a4.393,4.393,0,0,0,.079-.719,3.589,3.589,0,0,0-.157-.831q1.864-.146,3.111-.146a19.86,19.86,0,0,1,3.942.371,5.008,5.008,0,0,0-.079.752,4.9,4.9,0,0,0,.112.831,19.136,19.136,0,0,0-4.5-.483A18.68,18.68,0,0,0-74.463-7.873Zm15.417,7.7A24.277,24.277,0,0,0-54.07-9.984l-.977.247-1.482.359-1.426.337a4.926,4.926,0,0,0-.9-1.718,30.463,30.463,0,0,0,5.3-.943,40,40,0,0,0,.786-4.84,15.663,15.663,0,0,0,2.01.775,21.622,21.622,0,0,0-.921,3.65,9.086,9.086,0,0,1,2.111-.3q3.145,0,3.145,4.414a13.376,13.376,0,0,1-1.662,6.884A3.6,3.6,0,0,1-51.409.73q-.472,0-1.235-.045.011-.292.011-.382a3.612,3.612,0,0,0-.6-1.842,6.194,6.194,0,0,0,2.044.562q1.3,0,2.246-2.111a12.3,12.3,0,0,0,.943-5.042q0-2.751-1.943-2.751a8.615,8.615,0,0,0-2.212.371A42.819,42.819,0,0,1-57,.348,4.146,4.146,0,0,0-59.045-.168Zm13.4-12.623a3.488,3.488,0,0,0,1.2-1.381l.887,1.1q2.594,3.223,2.594,5.009,0,1.977-2.864,2.167a3.48,3.48,0,0,0-1.056-1.853,9.338,9.338,0,0,0,1.089.067q.932,0,.932-.764Q-42.862-9.815-45.647-12.792Zm11.52-1.685a19.2,19.2,0,0,0,2.055.719,22.642,22.642,0,0,0-.483,4.492A14.01,14.01,0,0,0-31.7-4.189q.859,2.224,1.96,2.224,1.348,0,1.977-4.29a3.412,3.412,0,0,0,.64,1.207,2.469,2.469,0,0,0,1.1.511,10.453,10.453,0,0,1-1.466,3.442,2.5,2.5,0,0,1-2.061.949q-2.089,0-3.392-2.9a18.6,18.6,0,0,1-1.3-7.558Q-34.239-12.14-34.127-14.476Zm12.5.786,1.64-.618a20.777,20.777,0,0,1,2.37,3.813,36.722,36.722,0,0,1,1.651,5.172,3.026,3.026,0,0,0-1.774.786,23.586,23.586,0,0,0-1.3-5.166A16.839,16.839,0,0,0-21.628-13.69Zm23.261,7.8A13.044,13.044,0,0,1-4.186-1.219,3.34,3.34,0,0,1-3.2-.138a15.853,15.853,0,0,0,6.325-5.75H5.405A11.216,11.216,0,0,1,3.519-2.875,14.6,14.6,0,0,1-.989.621,3.927,3.927,0,0,1,.069,1.7,18.677,18.677,0,0,0,1.932.414,23.476,23.476,0,0,0,4.761-2.415,13.317,13.317,0,0,0,6.808-5.888H8.349a27.967,27.967,0,0,1-.506,4.416c-.3,1.38-.46,1.564-1.38,1.564A15.887,15.887,0,0,1,3.726-.161a3.9,3.9,0,0,1,.46,1.495c.713.046,1.472.092,2,.092,1.564,0,2.139-.23,2.553-1.058A22.951,22.951,0,0,0,9.752-5.773,10.432,10.432,0,0,1,9.867-7.13a17.949,17.949,0,0,1-2.254.092H0A11.257,11.257,0,0,0,1.058-8.717H8.1a19.6,19.6,0,0,1,2.277.092v-1.449A13.064,13.064,0,0,1,8.1-9.936H-1.725a11.325,11.325,0,0,1-2.116-.138v1.495a11.259,11.259,0,0,1,2.07-.138h1.4C-1.311-6.785-2.99-5.244-5.7-3.864a4.089,4.089,0,0,1,.943,1.035A14.747,14.747,0,0,0-.9-5.888ZM-7.36-13.2H-8.3a12.856,12.856,0,0,1-2-.115V-11.8a16.577,16.577,0,0,1,1.955-.115h.989v6.578a11.46,11.46,0,0,1-2.967,1.127L-9.89-2.6c.207-.115.851-.437,1.219-.6A42.388,42.388,0,0,0-3.887-5.8l-.092-1.38A19.885,19.885,0,0,1-5.934-6v-5.911h.552a17.966,17.966,0,0,1,1.909.092v-1.472a13.574,13.574,0,0,1-1.909.092h-.552v-3.174A15.684,15.684,0,0,1-5.8-18.929H-7.5A18.222,18.222,0,0,1-7.36-16.4ZM6.233-11.454c.9,0,1.61.023,2.116.069a13.539,13.539,0,0,1-.092-2.047v-2.875a16.8,16.8,0,0,1,.092-2.139,16.844,16.844,0,0,1-2.392.115h-6a14.849,14.849,0,0,1-2.208-.115,15.478,15.478,0,0,1,.092,2.024v2.99a17.722,17.722,0,0,1-.092,2.07,16.219,16.219,0,0,1,2.093-.092ZM-.805-17.135H6.9v1.679h-7.7Zm0,2.806H6.9v1.748h-7.7Zm18.064,8.59a12.834,12.834,0,0,0,2.712-2.718,22.737,22.737,0,0,0,2.184-4.189l-1.292.034q-.876,0-2.1-.079l.011-.348a2.836,2.836,0,0,0-.539-1.539,12.128,12.128,0,0,0,2.841.393q.573,0,1.729-.079.427-1.179.831-2.617.09-.3.27-.932,1.033.168,2.021.314a22.231,22.231,0,0,0-.988,2.347q-.09.27-.281.786a22.913,22.913,0,0,0,5.379-1.5,7.955,7.955,0,0,0-.1.988q0,.314.045.809-1.235.225-1.741.337l-2.089.472q-.46.1-2.078.27a26.039,26.039,0,0,1-1.314,2.819,5.293,5.293,0,0,1,2.381-.876q1.932,0,2.123,2.785,1.875-.831,3.594-1.774l1.213-.674a3.4,3.4,0,0,0-.213.977A3.143,3.143,0,0,0,32.139-8.7a29.5,29.5,0,0,0-4.818,1.842l.056,1.28q.067,1.651.191,3.156a3.791,3.791,0,0,0-1.786.708q.2-2.673.2-4.335Q22.369-4.492,22.369-1.92q0,2.437,3.043,2.437A23.06,23.06,0,0,0,31.095-.741a4.082,4.082,0,0,0-.3,1.269,3.977,3.977,0,0,0,.191.977q-3.56.371-5.188.371-5.087,0-5.087-3.661,0-3.156,5.177-5.806l.011-.247q0-1.8-1.37-1.8-2.134,0-5.2,4.571A4.686,4.686,0,0,0,17.259-5.739Zm23.234-6.233a34.218,34.218,0,0,0,6.514-.842l3.077-.8a14.5,14.5,0,0,1,3.549-.539A5.716,5.716,0,0,1,57.95-12.4a6.241,6.241,0,0,1,1.679,4.5,6.818,6.818,0,0,1-4.122,6.5A20.892,20.892,0,0,1,48.1.146,3.683,3.683,0,0,0,46.928-2,24.28,24.28,0,0,0,50-1.752a8.975,8.975,0,0,0,5.7-1.786A5.439,5.439,0,0,0,57.99-7.985a4.743,4.743,0,0,0-1.219-3.42A4.316,4.316,0,0,0,53.5-12.679,23.3,23.3,0,0,0,47.7-11.41q-2.583.786-5.851,1.583A5.088,5.088,0,0,0,40.493-11.972Zm37.732-5.57a3.764,3.764,0,0,0,1.381,1.707q-1.011,1-1.325,1.37l-1.55,1.774a29.793,29.793,0,0,1-3.493,3.268q-1.4,1.134-1.4,1.741,0,.573,1.516,1.628a22.772,22.772,0,0,1,3.908,3.639L79-.449q.247.281,1.292,1.325A5.857,5.857,0,0,0,78.719,2.74a32.482,32.482,0,0,0-6.761-7.682q-2.1-1.539-2.1-2.594,0-1.235,1.943-2.875A31.139,31.139,0,0,0,78.225-17.542ZM92.373-4.391a43.763,43.763,0,0,0,5.351-4.442,65.2,65.2,0,0,0,4.958-6.295,46.487,46.487,0,0,1-4.661.562l-1.988.135a3.364,3.364,0,0,0-.674-2.01,29.835,29.835,0,0,0,3,.236,19.416,19.416,0,0,0,6.491-.977,3.378,3.378,0,0,0,1.213,1.449l-1.269.977-4.548,5.2a11.16,11.16,0,0,1,2.65-.371,6.541,6.541,0,0,1,4.346,1.393A4.52,4.52,0,0,1,108.9-4.9,6.126,6.126,0,0,1,105.378.7q-2.01,1.112-6.345,1.112A3.51,3.51,0,0,0,98.112-.46a9.982,9.982,0,0,0,2.954.629,6.609,6.609,0,0,0,4.307-1.477,4.407,4.407,0,0,0,1.814-3.51,3.208,3.208,0,0,0-1.269-2.622,5.1,5.1,0,0,0-3.291-1.016,6.937,6.937,0,0,0-3.8,1.067A19.138,19.138,0,0,0,94.8-3.481,4.311,4.311,0,0,0,92.373-4.391Zm26.7-5.357a16.8,16.8,0,0,0,4.279-1.348,11.418,11.418,0,0,1,4.582-1.078,3.622,3.622,0,0,1,2.92,1.348,5.291,5.291,0,0,1,1.123,3.5,9.711,9.711,0,0,1-2.291,6.233,13.307,13.307,0,0,1-5.952,3.773,5.03,5.03,0,0,0-1.2-2.134,7.508,7.508,0,0,0,5.671-2.594,8.505,8.505,0,0,0,2.1-5.514,3.419,3.419,0,0,0-.7-2.252,2.3,2.3,0,0,0-1.87-.848q-2.639,0-7.569,2.886A4.153,4.153,0,0,0,119.077-9.748Zm3.133-7.794a15.377,15.377,0,0,0,4.717.9q.9,0,2.2-.079a4.554,4.554,0,0,0-.236,1.168,5.146,5.146,0,0,0,.045.584,22.564,22.564,0,0,1-6.693-.932,2.9,2.9,0,0,0,.146-.708A3.369,3.369,0,0,0,122.21-17.542Z" transform="translate(135.147 18.929)" fill="#111"/>
</svg>
