<svg xmlns="http://www.w3.org/2000/svg" width="110.052" height="40.132" viewBox="0 0 110.052 40.132">
  <path id="mv_lead" d="M5.449-5.779q0-.71.11-1.912l-.879.022a12.665,12.665,0,0,1-1.516-.1,2.16,2.16,0,0,0-.256-1,10.57,10.57,0,0,0,1.838.212q.278,0,.916-.059.117-1.252.374-2.783a6.674,6.674,0,0,0,1.143.447,12.223,12.223,0,0,0-.447,2.234,27.7,27.7,0,0,0,4.277-1.04,1.9,1.9,0,0,0-.19.7q0,.146.007.315A24.98,24.98,0,0,1,6.6-7.778a16.225,16.225,0,0,0-.11,1.648,10.7,10.7,0,0,1,1.677-.183q.264,0,.732.022.183-.688.271-1.15a9.431,9.431,0,0,0,1.1.447q-.117.439-.286.886,2.842.967,2.842,3.3Q12.825,0,8.672,1.34A2.144,2.144,0,0,0,7.7.374a7.872,7.872,0,0,0,3.04-1.091A2.728,2.728,0,0,0,11.755-2.9q0-1.619-2.036-2.336A13.889,13.889,0,0,1,8.606-2.765,8.456,8.456,0,0,1,7.024-1.077L7.31-.4A2.458,2.458,0,0,0,6.4.344L6.057-.19A4,4,0,0,1,3.889.7,1.857,1.857,0,0,1,2.421.055a2.472,2.472,0,0,1-.56-1.688,3.436,3.436,0,0,1,.824-2.329A7.914,7.914,0,0,1,5.449-5.779ZM5.405-4.7q-2.5,1.187-2.5,3Q2.9-.374,4.05-.374A2.612,2.612,0,0,0,5.8-1.26,15.992,15.992,0,0,1,5.405-4.7ZM6.687-2.043A6.491,6.491,0,0,0,8.716-5.405q-.432-.022-.652-.022a5.739,5.739,0,0,0-1.641.286l.029.908A11.935,11.935,0,0,0,6.687-2.043ZM18.067.227A11.083,11.083,0,0,0,20.21-2.838,17.671,17.671,0,0,0,21.62-6.98q-.71.051-1.143.051-.527,0-1.45-.059a1.613,1.613,0,0,0,.081-.447,2.061,2.061,0,0,0-.249-.74,10.519,10.519,0,0,0,1.978.2l1.04-.029a11.536,11.536,0,0,0,.542-3.406,3.662,3.662,0,0,0,1.34.769,7.05,7.05,0,0,0-.505,1.677q-.051.271-.168.791A11.081,11.081,0,0,0,25.7-8.811a9.154,9.154,0,0,0-.073,1.135q-.505.11-.762.168a13.122,13.122,0,0,1-1.978.322A43.138,43.138,0,0,1,21.415-2.86,31.939,31.939,0,0,1,19.474.725,3.84,3.84,0,0,0,18.067.227ZM23.6-2.439a1.906,1.906,0,0,0,1.062.564,1.831,1.831,0,0,0-.425.916q0,.952,2.117.952A6.883,6.883,0,0,0,29.83-.762,4.722,4.722,0,0,0,29.413.747a16.87,16.87,0,0,1-2.571.242q-3.589,0-3.589-1.809A6.577,6.577,0,0,1,23.6-2.439Zm1.333-2.7a2.865,2.865,0,0,0,.051-.469,2.341,2.341,0,0,0-.1-.542q1.216-.1,2.029-.1A12.952,12.952,0,0,1,29.486-6a3.266,3.266,0,0,0-.051.491,3.2,3.2,0,0,0,.073.542,12.48,12.48,0,0,0-2.937-.315A12.183,12.183,0,0,0,24.938-5.134ZM34.567.227A11.083,11.083,0,0,0,36.71-2.838,17.671,17.671,0,0,0,38.12-6.98q-.71.051-1.143.051-.527,0-1.45-.059a1.613,1.613,0,0,0,.081-.447,2.061,2.061,0,0,0-.249-.74,10.519,10.519,0,0,0,1.978.2l1.04-.029a11.536,11.536,0,0,0,.542-3.406,3.662,3.662,0,0,0,1.34.769,7.05,7.05,0,0,0-.505,1.677q-.051.271-.168.791A11.081,11.081,0,0,0,42.2-8.811a9.154,9.154,0,0,0-.073,1.135q-.505.11-.762.168a13.122,13.122,0,0,1-1.978.322A43.138,43.138,0,0,1,37.915-2.86,31.939,31.939,0,0,1,35.974.725,3.84,3.84,0,0,0,34.567.227ZM40.1-2.439a1.906,1.906,0,0,0,1.062.564,1.831,1.831,0,0,0-.425.916q0,.952,2.117.952A6.883,6.883,0,0,0,46.33-.762,4.722,4.722,0,0,0,45.913.747a16.87,16.87,0,0,1-2.571.242q-3.589,0-3.589-1.809A6.577,6.577,0,0,1,40.1-2.439Zm1.333-2.7a2.865,2.865,0,0,0,.051-.469,2.341,2.341,0,0,0-.1-.542q1.216-.1,2.029-.1A12.952,12.952,0,0,1,45.986-6a3.266,3.266,0,0,0-.051.491,3.2,3.2,0,0,0,.073.542,12.48,12.48,0,0,0-2.937-.315A12.183,12.183,0,0,0,41.438-5.134ZM51.492-.11a15.833,15.833,0,0,0,3.245-6.4L54.1-6.35l-.967.234-.93.22a3.212,3.212,0,0,0-.586-1.121,19.867,19.867,0,0,0,3.457-.615,26.09,26.09,0,0,0,.513-3.157,10.215,10.215,0,0,0,1.311.505,14.1,14.1,0,0,0-.6,2.38,5.925,5.925,0,0,1,1.377-.2q2.051,0,2.051,2.878a8.723,8.723,0,0,1-1.084,4.49A2.347,2.347,0,0,1,56.473.476q-.308,0-.806-.029.007-.19.007-.249A2.356,2.356,0,0,0,55.286-1a4.04,4.04,0,0,0,1.333.366q.85,0,1.465-1.377A8.019,8.019,0,0,0,58.7-5.3Q58.7-7.1,57.432-7.1a5.619,5.619,0,0,0-1.443.242A27.926,27.926,0,0,1,52.825.227,2.7,2.7,0,0,0,51.492-.11ZM60.23-8.342a2.275,2.275,0,0,0,.784-.9l.579.718q1.692,2.1,1.692,3.267,0,1.289-1.868,1.414a2.27,2.27,0,0,0-.688-1.208,6.09,6.09,0,0,0,.71.044q.608,0,.608-.5Q62.046-6.4,60.23-8.342Zm7.513-1.1a12.524,12.524,0,0,0,1.34.469,14.767,14.767,0,0,0-.315,2.93,9.137,9.137,0,0,0,.56,3.311q.56,1.45,1.278,1.45.879,0,1.289-2.8a2.225,2.225,0,0,0,.417.787,1.61,1.61,0,0,0,.718.333,6.817,6.817,0,0,1-.956,2.245A1.628,1.628,0,0,1,70.731-.1q-1.362,0-2.212-1.89a12.128,12.128,0,0,1-.85-4.929Q67.67-7.917,67.743-9.441Zm8.152.513,1.069-.4A13.55,13.55,0,0,1,78.51-6.844a23.949,23.949,0,0,1,1.077,3.373,1.974,1.974,0,0,0-1.157.513,15.382,15.382,0,0,0-.85-3.369A10.982,10.982,0,0,0,75.9-8.928ZM91.065-3.84A8.507,8.507,0,0,1,87.27-.8a2.178,2.178,0,0,1,.645.705A10.339,10.339,0,0,0,92.04-3.84h1.485a7.315,7.315,0,0,1-1.23,1.965,9.522,9.522,0,0,1-2.94,2.28,2.561,2.561,0,0,1,.69.705A12.181,12.181,0,0,0,91.26.27a15.311,15.311,0,0,0,1.845-1.845A8.685,8.685,0,0,0,94.44-3.84h1a18.239,18.239,0,0,1-.33,2.88c-.195.9-.3,1.02-.9,1.02A10.361,10.361,0,0,1,92.43-.105a2.542,2.542,0,0,1,.3.975c.465.03.96.06,1.305.06C95.055.93,95.43.78,95.7.24a14.968,14.968,0,0,0,.66-4,6.8,6.8,0,0,1,.075-.885,11.706,11.706,0,0,1-1.47.06H90a7.342,7.342,0,0,0,.69-1.095h4.59a12.784,12.784,0,0,1,1.485.06V-6.57a8.52,8.52,0,0,1-1.485.09h-6.4a7.385,7.385,0,0,1-1.38-.09v.975a7.343,7.343,0,0,1,1.35-.09h.915A7.2,7.2,0,0,1,86.28-2.52a2.667,2.667,0,0,1,.615.675,9.618,9.618,0,0,0,2.52-2ZM85.2-8.61h-.615a8.385,8.385,0,0,1-1.305-.075v.99a10.811,10.811,0,0,1,1.275-.075H85.2v4.29a7.474,7.474,0,0,1-1.935.735l.285,1.05c.135-.075.555-.285.795-.39a27.644,27.644,0,0,0,3.12-1.695l-.06-.9a12.968,12.968,0,0,1-1.275.765V-7.77h.36a11.717,11.717,0,0,1,1.245.06v-.96a8.852,8.852,0,0,1-1.245.06h-.36v-2.07a10.228,10.228,0,0,1,.09-1.665H85.11a11.885,11.885,0,0,1,.09,1.65Zm8.865,1.14c.585,0,1.05.015,1.38.045a8.83,8.83,0,0,1-.06-1.335v-1.875a10.958,10.958,0,0,1,.06-1.395,10.985,10.985,0,0,1-1.56.075H89.97a9.684,9.684,0,0,1-1.44-.075,10.1,10.1,0,0,1,.06,1.32v1.95a11.558,11.558,0,0,1-.06,1.35,10.578,10.578,0,0,1,1.365-.06Zm-4.59-3.705H94.5v1.1H89.475Zm0,1.83H94.5V-8.2H89.475Zm11.781,5.6a8.37,8.37,0,0,0,1.769-1.772,14.828,14.828,0,0,0,1.425-2.732l-.842.022q-.571,0-1.37-.051l.007-.227a1.85,1.85,0,0,0-.352-1,7.909,7.909,0,0,0,1.853.256q.374,0,1.128-.051.278-.769.542-1.707.059-.2.176-.608.674.11,1.318.205a14.5,14.5,0,0,0-.645,1.531q-.059.176-.183.513a14.943,14.943,0,0,0,3.508-.981,5.188,5.188,0,0,0-.066.645q0,.205.029.527-.806.146-1.135.22l-1.362.308q-.3.066-1.355.176a16.982,16.982,0,0,1-.857,1.838,3.452,3.452,0,0,1,1.553-.571q1.26,0,1.384,1.816,1.223-.542,2.344-1.157l.791-.439a2.215,2.215,0,0,0-.139.637,2.05,2.05,0,0,0,.183.674,19.236,19.236,0,0,0-3.142,1.2l.037.835q.044,1.077.125,2.058a2.473,2.473,0,0,0-1.165.461q.132-1.743.132-2.827-2.358,1.018-2.358,2.7,0,1.589,1.985,1.589a15.039,15.039,0,0,0,3.706-.82,2.662,2.662,0,0,0-.2.828,2.593,2.593,0,0,0,.125.637q-2.322.242-3.384.242-3.318,0-3.318-2.388,0-2.058,3.376-3.787l.007-.161q0-1.172-.894-1.172-1.392,0-3.391,2.981A3.056,3.056,0,0,0,101.256-3.743ZM.908,18.192a22.316,22.316,0,0,0,4.248-.549l2.007-.52a9.46,9.46,0,0,1,2.314-.352,3.728,3.728,0,0,1,2.816,1.143,4.07,4.07,0,0,1,1.095,2.937A4.446,4.446,0,0,1,10.7,25.092a13.625,13.625,0,0,1-4.834,1A2.4,2.4,0,0,0,5.1,24.7a15.835,15.835,0,0,0,2.007.161,5.853,5.853,0,0,0,3.717-1.165,3.547,3.547,0,0,0,1.49-2.9,3.093,3.093,0,0,0-.795-2.23,2.815,2.815,0,0,0-2.135-.831,15.2,15.2,0,0,0-3.779.828q-1.685.513-3.816,1.033A3.319,3.319,0,0,0,.908,18.192ZM25.516,14.56a2.455,2.455,0,0,0,.9,1.113q-.659.652-.864.894l-1.011,1.157a19.43,19.43,0,0,1-2.278,2.131q-.916.74-.916,1.135,0,.374.989,1.062a14.851,14.851,0,0,1,2.549,2.373l1.135,1.282q.161.183.842.864a3.82,3.82,0,0,0-1.025,1.216,21.184,21.184,0,0,0-4.409-5.01q-1.37-1-1.37-1.692,0-.806,1.267-1.875A20.308,20.308,0,0,0,25.516,14.56Zm9.227,8.577a28.541,28.541,0,0,0,3.49-2.9,42.524,42.524,0,0,0,3.234-4.105,30.318,30.318,0,0,1-3.04.366l-1.3.088a2.194,2.194,0,0,0-.439-1.311,19.458,19.458,0,0,0,1.956.154,12.662,12.662,0,0,0,4.233-.637,2.2,2.2,0,0,0,.791.945l-.828.637-2.966,3.391a7.278,7.278,0,0,1,1.729-.242,4.266,4.266,0,0,1,2.834.908,2.948,2.948,0,0,1,1.084,2.373,4,4,0,0,1-2.3,3.647,8.932,8.932,0,0,1-4.138.725,2.289,2.289,0,0,0-.6-1.479,6.51,6.51,0,0,0,1.926.41,4.31,4.31,0,0,0,2.809-.963A2.874,2.874,0,0,0,44.4,22.858a2.092,2.092,0,0,0-.828-1.71,3.327,3.327,0,0,0-2.146-.663,4.524,4.524,0,0,0-2.479.7,12.481,12.481,0,0,0-2.626,2.549A2.811,2.811,0,0,0,34.743,23.136Zm17.416-3.494a10.958,10.958,0,0,0,2.791-.879,7.447,7.447,0,0,1,2.988-.7,2.362,2.362,0,0,1,1.9.879,3.451,3.451,0,0,1,.732,2.285A6.333,6.333,0,0,1,59.08,25.29,8.679,8.679,0,0,1,55.2,27.75a3.281,3.281,0,0,0-.784-1.392,4.9,4.9,0,0,0,3.7-1.692,5.547,5.547,0,0,0,1.37-3.6,2.23,2.23,0,0,0-.458-1.469,1.5,1.5,0,0,0-1.219-.553q-1.721,0-4.937,1.882A2.709,2.709,0,0,0,52.159,19.643ZM54.2,14.56a10.028,10.028,0,0,0,3.076.586q.586,0,1.436-.051a2.97,2.97,0,0,0-.154.762,3.357,3.357,0,0,0,.029.381,14.715,14.715,0,0,1-4.365-.608,1.893,1.893,0,0,0,.1-.461A2.2,2.2,0,0,0,54.2,14.56Z" transform="translate(-0.908 12.345)" fill="#111"/>
</svg>
